<?xml version="1.0" encoding="UTF-8"?><svg width="512" height="512" version="1.1" viewBox="0 0 135.47 135.47" xmlns="http://www.w3.org/2000/svg" xmlns:cc="http://creativecommons.org/ns#" xmlns:dc="http://purl.org/dc/elements/1.1/" xmlns:rdf="http://www.w3.org/1999/02/22-rdf-syntax-ns#"><defs><clipPath><path d="m8.871e-6 0h595.32v841.92h-595.32z" clip-rule="evenodd"/></clipPath><clipPath><path d="m8.871e-6 0h595.32v841.92h-595.32z" clip-rule="evenodd"/></clipPath><clipPath><path d="m8.871e-6 0h595.32v841.92h-595.32z" clip-rule="evenodd"/></clipPath><clipPath><path d="m8.871e-6 0h595.32v841.92h-595.32z" clip-rule="evenodd"/></clipPath><clipPath><path d="m8.871e-6 0h595.32v841.92h-595.32z" clip-rule="evenodd"/></clipPath><clipPath><path d="m8.871e-6 0h595.32v841.92h-595.32z" clip-rule="evenodd"/></clipPath><clipPath><path d="m8.871e-6 0h595.32v841.92h-595.32z" clip-rule="evenodd"/></clipPath></defs><g transform="translate(0 -161.53)"><g transform="matrix(.94898 0 0 -.94898 -87.186 873.31)"/><g transform="matrix(.94898 0 0 -.94898 -87.186 873.31)"/><g transform="matrix(.94898 0 0 -.94898 -87.186 873.31)"/><g transform="matrix(.94898 0 0 -.94898 -87.186 873.31)"/><g transform="matrix(.94898 0 0 -.94898 -87.186 873.31)"/><g transform="matrix(.94898 0 0 -.94898 -87.186 873.31)"/><g transform="matrix(.94898 0 0 -.94898 -87.186 873.31)"/><path d="m0.30937 229.22c0-37.209 30.168-67.377 67.377-67.377 37.209 0 67.377 30.168 67.377 67.377s-30.168 67.377-67.377 67.377c-37.209 0-67.377-30.168-67.377-67.377z" fill="#c00000" fill-rule="evenodd"/><path d="m67.687 222.48 0.07592-47.164" fill="none" stroke="#fff" stroke-linecap="round" stroke-linejoin="round" stroke-miterlimit="10" stroke-width="17.082"/><path d="m94.353 198.87c16.778 14.757 18.448 40.351 3.72 57.166-14.738 16.806-40.275 18.477-57.053 3.72-16.778-14.766-18.448-40.351-3.72-57.166 1.0439-1.1862 2.1447-2.306 3.3214-3.3594" fill="none" stroke="#fff" stroke-linecap="round" stroke-linejoin="round" stroke-miterlimit="10" stroke-width="17.082"/></g></svg>